%TF.GenerationSoftware,KiCad,Pcbnew,(5.0.0-rc2-dev-279-g5b653c0c1)*%
%TF.CreationDate,2018-07-19T10:29:47+12:00*%
%TF.ProjectId,veb,7665622E6B696361645F706362000000,0.1*%
%TF.SameCoordinates,Original*%
%TF.FileFunction,Copper,L4,Bot,Signal*%
%TF.FilePolarity,Positive*%
%FSLAX46Y46*%
G04 Gerber Fmt 4.6, Leading zero omitted, Abs format (unit mm)*
G04 Created by KiCad (PCBNEW (5.0.0-rc2-dev-279-g5b653c0c1)) date 07/19/18 10:29:47*
%MOMM*%
%LPD*%
G01*
G04 APERTURE LIST*
%ADD10C,3.810000*%
%ADD11R,1.651000X1.651000*%
%ADD12C,1.651000*%
%ADD13C,0.400000*%
%ADD14C,0.450000*%
%ADD15C,1.000000*%
%ADD16C,0.600000*%
%ADD17C,0.250000*%
%ADD18C,0.300000*%
%ADD19C,0.254000*%
G04 APERTURE END LIST*
D10*
X115752000Y-92710000D03*
X111252000Y-92710000D03*
X115752000Y-105410000D03*
X111252000Y-105410000D03*
X115752000Y-118110000D03*
X111252000Y-118110000D03*
X181428000Y-92710000D03*
X185928000Y-92710000D03*
X181428000Y-105410000D03*
X185928000Y-105410000D03*
X181326000Y-118110000D03*
X185826000Y-118110000D03*
D11*
X132870475Y-81741725D03*
D12*
X132870475Y-84281725D03*
D11*
X164338000Y-81788000D03*
D12*
X164338000Y-84328000D03*
D13*
X167005000Y-112293400D03*
D14*
X131241800Y-100076000D03*
X131191000Y-110490000D03*
X131191000Y-109855000D03*
D15*
X171450000Y-93599000D03*
X125222000Y-83058000D03*
X115570000Y-83058000D03*
D14*
X134296100Y-115119100D03*
X131241800Y-101396800D03*
X131521200Y-113995200D03*
X132969000Y-116459000D03*
X131241800Y-103987600D03*
X131241800Y-102692200D03*
D16*
X132461000Y-122809000D03*
X127000000Y-115555475D03*
X128536600Y-115555475D03*
X118491000Y-120904000D03*
X119507000Y-101727000D03*
X118872000Y-95631000D03*
X118745000Y-114935000D03*
X121920000Y-99568000D03*
X154079475Y-112824975D03*
X179070000Y-101727000D03*
X123952000Y-105283000D03*
X120027600Y-105839975D03*
D15*
X121920000Y-83058000D03*
D16*
X161163000Y-96520000D03*
X161417000Y-101600000D03*
X161544000Y-107188000D03*
X164211000Y-109728000D03*
X165227000Y-114046000D03*
X162433000Y-111506000D03*
X159385000Y-108331000D03*
X159385000Y-101346000D03*
X157861000Y-96266000D03*
X159258000Y-97917000D03*
X132842000Y-96266000D03*
X143129000Y-130683000D03*
X145669000Y-130683000D03*
X137033000Y-115062000D03*
X179197000Y-99568000D03*
X159258000Y-104775000D03*
X159258000Y-94488000D03*
X137096500Y-123634500D03*
X146177000Y-118110000D03*
X167513000Y-104013000D03*
X166116000Y-104013000D03*
X166751000Y-122174000D03*
X156286100Y-101092000D03*
X165354000Y-122428000D03*
X163703000Y-122428000D03*
X150495000Y-105029000D03*
X144907000Y-118110000D03*
X143383000Y-117094000D03*
X148209000Y-127254000D03*
X145796000Y-124206000D03*
X143129000Y-127254000D03*
X140589000Y-124206000D03*
X160147000Y-122809000D03*
X155575000Y-122682000D03*
X135763000Y-121285000D03*
X131953000Y-96266000D03*
X121710350Y-111824850D03*
X130302000Y-98679000D03*
X163195000Y-120873600D03*
X163144100Y-119507000D03*
X157175100Y-117952600D03*
X157099000Y-99441000D03*
X155321000Y-98425000D03*
X156464000Y-96901000D03*
X155067000Y-96774000D03*
X154813000Y-95377000D03*
X157937100Y-116682600D03*
X156540100Y-115920600D03*
X155143100Y-115666600D03*
X153746100Y-115158600D03*
X141478000Y-84424600D03*
X140335000Y-85313600D03*
X141478000Y-86202600D03*
X140335000Y-87091600D03*
X169240100Y-123413600D03*
X162509100Y-123698000D03*
X166243000Y-119761000D03*
X157429100Y-94234000D03*
X148209000Y-110617000D03*
X147955000Y-103030100D03*
X134112000Y-128397000D03*
X130409850Y-123334225D03*
X156857600Y-105474850D03*
X161524850Y-122619850D03*
X157476725Y-121270475D03*
D15*
X129032000Y-86345475D03*
D16*
X138712475Y-116190475D03*
X138347350Y-96140350D03*
X148209000Y-106109850D03*
X163382225Y-103172975D03*
D15*
X176403000Y-96901000D03*
D16*
X154079475Y-111935975D03*
X137414000Y-96139000D03*
X125158500Y-106586100D03*
X137795000Y-116205000D03*
X120027600Y-107348100D03*
X124587000Y-107935475D03*
X148209000Y-111506000D03*
X147955000Y-104013000D03*
X148412100Y-107062350D03*
X140411100Y-92854225D03*
X146602350Y-92854225D03*
X125647350Y-120159225D03*
X164302975Y-103124000D03*
X172002350Y-111951850D03*
X157746600Y-105474850D03*
X171573725Y-115364975D03*
X175701225Y-112856725D03*
X167386000Y-117348000D03*
X179197000Y-115570000D03*
X123901100Y-126906100D03*
X142875000Y-115189000D03*
X174701100Y-126191725D03*
X127000000Y-104950975D03*
X127889000Y-108221225D03*
D15*
X176911000Y-92202000D03*
X163957000Y-93744225D03*
X154857350Y-85916850D03*
X111480300Y-82969800D03*
D16*
X172466000Y-105537000D03*
D15*
X118872000Y-83058000D03*
X129286000Y-83058000D03*
X167767000Y-93726000D03*
X175006000Y-93599000D03*
D16*
X120142000Y-112522000D03*
X132632350Y-94234000D03*
X170652975Y-118539975D03*
X171577000Y-114444225D03*
X169065475Y-120365600D03*
D15*
X166207975Y-98171000D03*
D16*
X127000000Y-105839975D03*
X172002350Y-111062850D03*
X173034225Y-113491725D03*
X172021500Y-107823000D03*
D15*
X113538000Y-87630000D03*
D16*
X172466000Y-104267000D03*
X177241100Y-123096100D03*
D17*
X171516101Y-116232353D02*
X171516101Y-122699011D01*
X170378610Y-115094862D02*
X171516101Y-116232353D01*
X170378610Y-105353200D02*
X170378610Y-115094862D01*
X168276410Y-103251000D02*
X170378610Y-105353200D01*
X166116000Y-104013000D02*
X166878000Y-103251000D01*
X166878000Y-103251000D02*
X168276410Y-103251000D01*
X171516101Y-122699011D02*
X164040112Y-130175000D01*
X164040112Y-130175000D02*
X146177000Y-130175000D01*
X146177000Y-130175000D02*
X145669000Y-130683000D01*
X168402000Y-104013000D02*
X167513000Y-104013000D01*
D18*
X166243000Y-113411000D02*
X160401000Y-107569000D01*
X166243000Y-119761000D02*
X166243000Y-113411000D01*
X160401000Y-107569000D02*
X160401000Y-97205900D01*
X160401000Y-97205900D02*
X157429100Y-94234000D01*
D17*
X118745000Y-100711000D02*
X119888000Y-99568000D01*
X118745000Y-114935000D02*
X118745000Y-100711000D01*
X119888000Y-99568000D02*
X121920000Y-99568000D01*
X163900682Y-129678020D02*
X144133980Y-129678020D01*
X144133980Y-129678020D02*
X143129000Y-130683000D01*
X137096500Y-124396500D02*
X137096500Y-123634500D01*
X137033000Y-124460000D02*
X137096500Y-124396500D01*
X137033000Y-125350410D02*
X137033000Y-124460000D01*
X146177000Y-118110000D02*
X146177000Y-123825000D01*
X146177000Y-123825000D02*
X145796000Y-124206000D01*
X169928601Y-105539601D02*
X168402000Y-104013000D01*
X163900682Y-129678020D02*
X169928601Y-123650101D01*
X169928601Y-123650101D02*
X169928601Y-105539601D01*
X156911101Y-109413101D02*
X155956000Y-108458000D01*
X156911101Y-109427961D02*
X156911101Y-109413101D01*
X165157019Y-117673879D02*
X156911101Y-109427961D01*
X165157019Y-121088019D02*
X165157019Y-117673879D01*
X166497000Y-122174000D02*
X166243000Y-122174000D01*
X166243000Y-122174000D02*
X165157019Y-121088019D01*
X155956000Y-108458000D02*
X155956000Y-101422100D01*
X155956000Y-101422100D02*
X156286100Y-101092000D01*
X155500459Y-100023541D02*
X156083000Y-99441000D01*
X165100000Y-122428000D02*
X164707009Y-122035009D01*
X155500459Y-108653729D02*
X155500459Y-100023541D01*
X164707009Y-117860279D02*
X155500459Y-108653729D01*
X164707009Y-122035009D02*
X164707009Y-117860279D01*
X165354000Y-122428000D02*
X165100000Y-122428000D01*
X156083000Y-99441000D02*
X157099000Y-99441000D01*
X164256999Y-121874001D02*
X164256999Y-118046679D01*
X163703000Y-122428000D02*
X164256999Y-121874001D01*
X164256999Y-118046679D02*
X155050449Y-108840129D01*
X155050449Y-108840129D02*
X155050449Y-98695551D01*
X155050449Y-98695551D02*
X155321000Y-98425000D01*
X155211422Y-97609576D02*
X155755424Y-97609576D01*
X154600439Y-98220559D02*
X155211422Y-97609576D01*
X155755424Y-97609576D02*
X156464000Y-96901000D01*
X154600439Y-109026529D02*
X154600439Y-98220559D01*
X163769101Y-118195191D02*
X154600439Y-109026529D01*
X163195000Y-120873600D02*
X163769101Y-120299499D01*
X163769101Y-120299499D02*
X163769101Y-118195191D01*
X163144100Y-118330780D02*
X163144100Y-119507000D01*
X154150429Y-109212929D02*
X154150429Y-97266307D01*
X154150429Y-97266307D02*
X154642736Y-96774000D01*
X154642736Y-96774000D02*
X155067000Y-96774000D01*
X154051000Y-95377000D02*
X154813000Y-95377000D01*
X153700419Y-95727581D02*
X154051000Y-95377000D01*
X153700419Y-109523509D02*
X153700419Y-95727581D01*
X158662101Y-114485191D02*
X153700419Y-109523509D01*
X158662101Y-117030601D02*
X158662101Y-114485191D01*
X158140101Y-117552601D02*
X158662101Y-117030601D01*
X157175100Y-117952600D02*
X157575099Y-117552601D01*
X157575099Y-117552601D02*
X158140101Y-117552601D01*
X140792100Y-87091600D02*
X140335000Y-87091600D01*
X141427100Y-86202600D02*
X141681100Y-86202600D01*
X141992785Y-86202600D02*
X141427100Y-86202600D01*
X146276420Y-85313600D02*
X140792100Y-85313600D01*
X152800398Y-91837578D02*
X146276420Y-85313600D01*
X152800399Y-115285901D02*
X152800398Y-91837578D01*
X153581097Y-116066599D02*
X152800399Y-115285901D01*
X155143100Y-115666600D02*
X154743101Y-116066599D01*
X154743101Y-116066599D02*
X153581097Y-116066599D01*
X140792100Y-85313600D02*
X140335000Y-85313600D01*
X141992785Y-84424600D02*
X141427100Y-84424600D01*
X177241100Y-105359100D02*
X176149000Y-104267000D01*
X177241100Y-123096100D02*
X177241100Y-105359100D01*
X176149000Y-104267000D02*
X172466000Y-104267000D01*
X121710350Y-102317650D02*
X125349000Y-98679000D01*
X121710350Y-111824850D02*
X121710350Y-102317650D01*
X125349000Y-98679000D02*
X129736315Y-98679000D01*
X129736315Y-98679000D02*
X130302000Y-98679000D01*
X150495000Y-125730000D02*
X150114000Y-126111000D01*
X150495000Y-105029000D02*
X150495000Y-125730000D01*
X150114000Y-126111000D02*
X149352000Y-126111000D01*
X149352000Y-126111000D02*
X148209000Y-127254000D01*
X144272000Y-124402998D02*
X144272000Y-126111000D01*
X144272000Y-126111000D02*
X143129000Y-127254000D01*
X144907000Y-118110000D02*
X144907000Y-123767998D01*
X144907000Y-123767998D02*
X144272000Y-124402998D01*
X143383000Y-123444000D02*
X142621000Y-124206000D01*
X142621000Y-124206000D02*
X140589000Y-124206000D01*
X143383000Y-117094000D02*
X143383000Y-123444000D01*
X160147000Y-122809000D02*
X159747001Y-123208999D01*
X159747001Y-123208999D02*
X159747001Y-124351999D01*
X159747001Y-124351999D02*
X154870990Y-129228010D01*
X137033000Y-125350410D02*
X140910600Y-129228010D01*
X140910600Y-129228010D02*
X154870990Y-129228010D01*
X138684000Y-126365000D02*
X138684000Y-124206000D01*
X138684000Y-124206000D02*
X135763000Y-121285000D01*
X141097000Y-128778000D02*
X138684000Y-126365000D01*
X151765000Y-128778000D02*
X141097000Y-128778000D01*
X155575000Y-124968000D02*
X151765000Y-128778000D01*
X155575000Y-122682000D02*
X155575000Y-124968000D01*
X159112110Y-114174610D02*
X154150429Y-109212929D01*
X159112110Y-114298790D02*
X159112110Y-114174610D01*
X163144100Y-118330780D02*
X159112110Y-114298790D01*
X157537101Y-117082599D02*
X153324277Y-117082599D01*
X157937100Y-116682600D02*
X157537101Y-117082599D01*
X153324277Y-117082599D02*
X151841100Y-115599422D01*
X151841100Y-115599422D02*
X151841100Y-92151100D01*
X151841100Y-92151100D02*
X146781600Y-87091600D01*
X146781600Y-87091600D02*
X140792100Y-87091600D01*
X146529010Y-86202600D02*
X141992785Y-86202600D01*
X152350389Y-92023979D02*
X146529010Y-86202600D01*
X152350390Y-115472302D02*
X152350389Y-92023979D01*
X153394697Y-116516609D02*
X152350390Y-115472302D01*
X155944091Y-116516609D02*
X153394697Y-116516609D01*
X156540100Y-115920600D02*
X155944091Y-116516609D01*
X146023830Y-84424600D02*
X141992785Y-84424600D01*
X153746100Y-115158600D02*
X155607899Y-113296801D01*
X153250409Y-91651179D02*
X146023830Y-84424600D01*
X153250409Y-109709909D02*
X153250409Y-91651179D01*
X155607899Y-112067399D02*
X153250409Y-109709909D01*
X155607899Y-113296801D02*
X155607899Y-112067399D01*
X140792100Y-87091600D02*
X141843463Y-87091600D01*
X141808100Y-86202600D02*
X141427100Y-86202600D01*
X162717400Y-123413600D02*
X162509100Y-123621900D01*
X169240100Y-123413600D02*
X162717400Y-123413600D01*
X162509100Y-123621900D02*
X162509100Y-123698000D01*
D19*
G36*
X161798000Y-96571560D02*
X161798000Y-106680000D01*
X161807667Y-106728601D01*
X161835197Y-106769803D01*
X167513000Y-112447606D01*
X167513000Y-120523000D01*
X165609019Y-120523000D01*
X165609019Y-117718396D01*
X165617874Y-117673878D01*
X165582794Y-117497517D01*
X165540146Y-117433690D01*
X165482893Y-117348005D01*
X165445153Y-117322788D01*
X165354000Y-117231635D01*
X165354000Y-114935000D01*
X165344333Y-114886399D01*
X165315909Y-114844313D01*
X158877000Y-108531657D01*
X158877000Y-97790000D01*
X158867333Y-97741399D01*
X158841420Y-97701845D01*
X155496548Y-94233089D01*
X155613476Y-94109282D01*
X156802100Y-94109282D01*
X156802100Y-94358718D01*
X156897555Y-94589167D01*
X157073933Y-94765545D01*
X157304382Y-94861000D01*
X157381521Y-94861000D01*
X159924001Y-97403481D01*
X159924000Y-107522029D01*
X159914657Y-107569000D01*
X159924000Y-107615971D01*
X159924000Y-107615974D01*
X159951677Y-107755115D01*
X160057103Y-107912897D01*
X160096929Y-107939508D01*
X165766001Y-113608581D01*
X165766000Y-119351288D01*
X165711455Y-119405833D01*
X165616000Y-119636282D01*
X165616000Y-119885718D01*
X165711455Y-120116167D01*
X165887833Y-120292545D01*
X166118282Y-120388000D01*
X166367718Y-120388000D01*
X166598167Y-120292545D01*
X166774545Y-120116167D01*
X166870000Y-119885718D01*
X166870000Y-119636282D01*
X166774545Y-119405833D01*
X166720000Y-119351288D01*
X166720000Y-113457975D01*
X166729344Y-113411000D01*
X166692323Y-113224884D01*
X166613506Y-113106926D01*
X166586897Y-113067103D01*
X166547074Y-113040494D01*
X160878000Y-107371421D01*
X160878000Y-97252870D01*
X160887343Y-97205899D01*
X160878000Y-97158928D01*
X160878000Y-97158925D01*
X160850323Y-97019784D01*
X160744897Y-96862003D01*
X160705074Y-96835394D01*
X158056100Y-94186421D01*
X158056100Y-94109282D01*
X157960645Y-93878833D01*
X157784267Y-93702455D01*
X157553818Y-93607000D01*
X157304382Y-93607000D01*
X157073933Y-93702455D01*
X156897555Y-93878833D01*
X156802100Y-94109282D01*
X155613476Y-94109282D01*
X157481329Y-92131556D01*
X161798000Y-96571560D01*
X161798000Y-96571560D01*
G37*
X161798000Y-96571560D02*
X161798000Y-106680000D01*
X161807667Y-106728601D01*
X161835197Y-106769803D01*
X167513000Y-112447606D01*
X167513000Y-120523000D01*
X165609019Y-120523000D01*
X165609019Y-117718396D01*
X165617874Y-117673878D01*
X165582794Y-117497517D01*
X165540146Y-117433690D01*
X165482893Y-117348005D01*
X165445153Y-117322788D01*
X165354000Y-117231635D01*
X165354000Y-114935000D01*
X165344333Y-114886399D01*
X165315909Y-114844313D01*
X158877000Y-108531657D01*
X158877000Y-97790000D01*
X158867333Y-97741399D01*
X158841420Y-97701845D01*
X155496548Y-94233089D01*
X155613476Y-94109282D01*
X156802100Y-94109282D01*
X156802100Y-94358718D01*
X156897555Y-94589167D01*
X157073933Y-94765545D01*
X157304382Y-94861000D01*
X157381521Y-94861000D01*
X159924001Y-97403481D01*
X159924000Y-107522029D01*
X159914657Y-107569000D01*
X159924000Y-107615971D01*
X159924000Y-107615974D01*
X159951677Y-107755115D01*
X160057103Y-107912897D01*
X160096929Y-107939508D01*
X165766001Y-113608581D01*
X165766000Y-119351288D01*
X165711455Y-119405833D01*
X165616000Y-119636282D01*
X165616000Y-119885718D01*
X165711455Y-120116167D01*
X165887833Y-120292545D01*
X166118282Y-120388000D01*
X166367718Y-120388000D01*
X166598167Y-120292545D01*
X166774545Y-120116167D01*
X166870000Y-119885718D01*
X166870000Y-119636282D01*
X166774545Y-119405833D01*
X166720000Y-119351288D01*
X166720000Y-113457975D01*
X166729344Y-113411000D01*
X166692323Y-113224884D01*
X166613506Y-113106926D01*
X166586897Y-113067103D01*
X166547074Y-113040494D01*
X160878000Y-107371421D01*
X160878000Y-97252870D01*
X160887343Y-97205899D01*
X160878000Y-97158928D01*
X160878000Y-97158925D01*
X160850323Y-97019784D01*
X160744897Y-96862003D01*
X160705074Y-96835394D01*
X158056100Y-94186421D01*
X158056100Y-94109282D01*
X157960645Y-93878833D01*
X157784267Y-93702455D01*
X157553818Y-93607000D01*
X157304382Y-93607000D01*
X157073933Y-93702455D01*
X156897555Y-93878833D01*
X156802100Y-94109282D01*
X155613476Y-94109282D01*
X157481329Y-92131556D01*
X161798000Y-96571560D01*
M02*
