M48
;DRILL file {KiCad (5.0.0-rc2-dev-279-g5b653c0c1)} date 04/23/18 23:17:25
;FORMAT={-:-/ absolute / inch / decimal}
FMAT,2
INCH,TZ
T1C0.0079
T2C0.0236
T3C0.0276
T4C0.0906
%
G90
G05
M72
T1
X4.665Y-4.76
X4.675Y-4.525
X4.68Y-3.765
X4.705Y-4.005
X4.7255Y-4.1669
X4.7255Y-4.2263
X4.73Y-4.43
X4.7917Y-4.4026
X4.8Y-3.92
X4.878Y-4.9963
X4.88Y-4.145
X4.905Y-4.2494
X4.9275Y-4.1963
X4.9467Y-4.7307
X5.Y-4.1319
X5.Y-4.1669
X5.Y-4.5494
X5.035Y-4.2607
X5.0605Y-4.5494
X5.13Y-3.885
X5.1342Y-4.8557
X5.165Y-4.325
X5.165Y-4.35
X5.167Y-3.94
X5.167Y-3.992
X5.167Y-4.043
X5.167Y-4.094
X5.178Y-4.488
X5.195Y-3.79
X5.215Y-4.835
X5.2217Y-3.71
X5.23Y-3.79
X5.235Y-4.585
X5.28Y-5.055
X5.2872Y-4.5322
X5.345Y-4.775
X5.395Y-4.53
X5.3975Y-4.8675
X5.41Y-3.785
X5.425Y-4.575
X5.4467Y-3.7851
X5.4611Y-4.5744
X5.525Y-3.3588
X5.525Y-3.4288
X5.528Y-3.6557
X5.535Y-4.89
X5.57Y-3.3238
X5.57Y-3.3938
X5.625Y-4.535
X5.635Y-5.01
X5.635Y-5.145
X5.645Y-4.61
X5.705Y-4.65
X5.735Y-5.145
X5.74Y-4.89
X5.755Y-4.65
X5.7717Y-3.6557
X5.825Y-4.0563
X5.825Y-4.095
X5.835Y-4.1776
X5.835Y-4.355
X5.835Y-4.39
X5.835Y-5.01
X5.843Y-4.2151
X5.925Y-4.135
X6.053Y-4.5338
X6.0661Y-4.4069
X6.0661Y-4.4419
X6.095Y-3.755
X6.105Y-3.81
X6.108Y-4.5538
X6.115Y-3.875
X6.125Y-4.83
X6.153Y-3.98
X6.16Y-3.815
X6.163Y-4.5638
X6.1755Y-4.1526
X6.185Y-3.915
X6.188Y-4.6438
X6.198Y-3.71
X6.1999Y-4.7744
X6.2105Y-4.1526
X6.215Y-3.79
X6.218Y-4.5938
X6.27Y-3.72
X6.27Y-3.855
X6.27Y-4.125
X6.275Y-3.99
X6.275Y-4.265
X6.305Y-4.835
X6.345Y-3.8
X6.355Y-4.
X6.3592Y-4.8276
X6.36Y-4.22
X6.395Y-4.39
X6.398Y-4.87
X6.423Y-4.705
X6.425Y-4.7588
X6.4324Y-4.0619
X6.445Y-4.82
X6.465Y-4.32
X6.4686Y-4.06
X6.505Y-4.49
X6.51Y-4.82
X6.54Y-4.095
X6.545Y-4.715
X6.565Y-4.81
X6.575Y-4.421
X6.59Y-4.62
X6.595Y-4.095
X6.6561Y-4.7388
X6.663Y-4.8588
X6.7186Y-4.6669
X6.7549Y-4.5419
X6.755Y-4.5057
X6.7717Y-4.3726
X6.7717Y-4.4076
X6.7725Y-4.245
X6.79Y-4.105
X6.79Y-4.155
X6.8124Y-4.4682
X6.878Y-4.9682
X6.9174Y-4.4432
X6.978Y-4.8463
X7.05Y-4.005
X7.055Y-3.92
X7.055Y-4.55
T2
X4.389Y-3.2665
X4.47Y-3.45
X4.55Y-3.27
X4.68Y-3.27
X4.8Y-3.27
X4.93Y-3.27
X5.08Y-3.3994
X5.09Y-3.27
X6.0967Y-3.3826
X6.455Y-3.6907
X6.5436Y-3.865
X6.605Y-3.69
X6.75Y-3.685
X6.89Y-3.685
X6.945Y-3.815
X6.965Y-3.63
T3
X5.2311Y-3.2182
X5.2311Y-3.3182
X6.47Y-3.22
X6.47Y-3.32
T4
X4.38Y-4.15
X4.5572Y-4.15
X7.1428Y-3.65
X7.32Y-3.65
X4.38Y-3.65
X4.5572Y-3.65
X7.1388Y-4.65
X7.316Y-4.65
X7.1428Y-4.15
X7.32Y-4.15
X4.38Y-4.65
X4.5572Y-4.65
T0
M30
